<?xml version="1.0" encoding="utf-8"?>
<!-- Generator: Adobe Illustrator 24.1.2, SVG Export Plug-In . SVG Version: 6.00 Build 0)  -->
<svg version="1.1" id="Layer_1" xmlns="http://www.w3.org/2000/svg" xmlns:xlink="http://www.w3.org/1999/xlink" x="0px" y="0px"
	 viewBox="0 0 440.26 447.69" style="enable-background:new 0 0 440.26 447.69;" xml:space="preserve">
<style type="text/css">
	.st0{fill:#F4F3F4;stroke:#F4F3F4;stroke-width:2;stroke-miterlimit:10;}
	.st1{enable-background:new    ;}
	.st2{fill:#4F5DA7;}
</style>
<path class="st0" d="M119.8,8.44h200.66c65.6,0,118.8,53.2,118.8,118.8V327.9c0,65.6-53.2,118.8-118.8,118.8H119.8
	C54.2,446.69,1,393.49,1,327.89V127.23C1,61.63,54.2,8.44,119.8,8.44z"/>
<g class="st1">
	<path class="st2" d="M320.87,146.24c-16.96,34.75-25.44,52.06-25.44,51.92c0,1.93,1.6,4,4.8,6.21
		c15.71,11.31,26.48,22.96,32.32,34.96c5.84,12,8.76,28.06,8.76,48.2c0,30.2-11.33,53.3-33.99,69.29
		c-20.02,14.2-45.88,21.3-77.57,21.3c-15.29,0-35.8-0.28-61.51-0.83c-37.95-0.83-59.19-1.65-63.71-2.48
		c-4.52-0.83-6.71-2.41-6.57-4.76l0.21-2.9c2.64-32.68,3.96-78.19,3.96-136.52c0-15.31-0.73-38.27-2.19-68.88
		c-1.46-30.61-2.19-53.51-2.19-68.67c0-3.45,2.01-5.58,6.05-6.41c4.03-0.83,15.98-1.24,35.87-1.24c17.38,0,30.16,0.28,38.37,0.83
		c1.94,0.14,3.89,0.28,5.84,0.41c1.25,0.41,1.88,1.79,1.88,4.14c0,9.38-0.87,23.37-2.61,41.99c-1.74,18.62-2.61,32.61-2.61,41.99
		c0,7.03,1.04,10.55,3.13,10.55c18.49,0,25.65,0.14,21.48,0.41c9.04-0.55,14.8-3.52,17.31-8.89c11.54-26.89,20.02-47.23,25.44-61.02
		c4.03-10.62,7.09-18.62,9.17-23.99c1.11-2.35,2.09-3.72,2.92-4.14c0.42-0.28,2.15-0.62,5.21-1.03c6.53-0.83,18.9-1.24,37.12-1.24
		c21.27,0,34.54,0.41,39.83,1.24c2.78,0.41,4.17,1.1,4.17,2.07C346.31,92.32,337.82,111.49,320.87,146.24z M213.06,238.29
		c-9.31,0-18.21,0.62-26.69,1.86c-4.45,0.69-6.67,1.38-6.67,2.07c0,3.03-0.07,7.65-0.21,13.86c-0.14,6.21-0.21,10.89-0.21,14.07
		c0,22.34,0.42,35.85,1.25,40.54c0.83,4,7.85,6,21.06,6c18.35,0,31.83-2.48,40.45-7.45c11.12-6.48,16.68-18.13,16.68-34.96
		C258.72,250.29,243.5,238.29,213.06,238.29z"/>
</g>
</svg>
